# xmcd
#
# Track frame offsets:
#	151
#	19086
#	37123
#	58216
#	72317
#	89208
#	111559
#	127770
#	146107
#	162934
#	181281
#
# Disc length: 2647
#
# Revision: 2
# Processed by: cddbd v1.5.1PL0 Copyright (c) Steve Scherf et al.
# Submitted via: EasyCDDAExtractor 6.2.0.3
# Normalized: r1:DSETVAR1
#
DISCID=a70a550b
DTITLE=Various Artist - Universal Street Hitz 11
DYEAR=2004
DGENRE=Hip-Hop
TTITLE0=Terror Squad - Lean Back
TTITLE1=Jadakiss feat. Anthony Hamilton - Why
TTITLE2=Shyne - More Or Less
TTITLE3=Lloyd Banks - On Fire
TTITLE4=Young Buck - Let Me In
TTITLE5=Young Rome feat Youngbloodz - I Don't Care
TTITLE6=David Banner feat Sky - Pop That
TTITLE7=Nelly - Flap Your Wings
TTITLE8=Mr Vegas - Tamale
TTITLE9=Fam'lay feat P - Fresh and Drivin'
TTITLE10=Comp - Harder
EXTD=
EXTT0=
EXTT1=
EXTT2=
EXTT3=
EXTT4=
EXTT5=
EXTT6=
EXTT7=
EXTT8=
EXTT9=
EXTT10=
PLAYORDER=
